<svg xmlns="http://www.w3.org/2000/svg" width="419.528" height="297.638"><path d="M0 0h419.528v297.638H0z"/><path fill="#FFF" d="M239.27 118.121c-.948.511-1.787.766-2.516.766-1.822 0-2.733-1.165-2.733-3.499 0-9.258 1.457-13.888 4.374-13.888 2.04 0 3.062 1.568 3.062 4.702-.001 4.229-.73 8.201-2.187 11.919m9.731-36.195c0-2.405-.511-6.123-1.531-11.153-.146 0-.383-.036-.711-.11a4.028 4.028 0 0 0-.819-.109c-3.937 0-8.42 5.068-13.45 15.2-3.28 6.708-6.052 13.742-8.312 21.104-1.677 5.322-2.989 10.426-3.936 15.309-1.823 9.478-2.734 18.59-2.734 27.338 0 9.038.767 14.287 2.296 15.746l2.845-.219c1.312-1.385 3.207-3.572 5.686-6.561 5.977-8.237 11.007-20.559 15.09-36.96 3.718-14.872 5.576-28.065 5.576-39.585m6.562 2.078c0 5.468-.984 14.472-2.952 27.009l-2.297 7.983c-1.094 5.03-3.136 12.466-6.123 22.307-5.541 14.216-11.118 23.547-16.731 27.994-2.771 2.114-4.849 3.172-6.232 3.172-1.823 0-3.209-.183-4.155-.547-.366-.073-.839-.547-1.422-1.422-2.916-4.01-4.374-10.023-4.374-18.043 0-9.476 1.094-20.047 3.281-31.712 1.894-10.35 4.701-20.301 8.42-29.852 4.664-12.1 9.877-20.703 15.637-25.807 1.457-1.238 3.718-1.859 6.78-1.859 2.186 0 3.862.476 5.028 1.422.146.073.583.73 1.313 1.968 2.549 4.374 3.827 10.17 3.827 17.387m57.116 30.726c0 4.374-.292 7.072-.875 8.092-.365.656-1.349.984-2.952.984-1.531 0-2.698-1.712-3.499-5.139a33.63 33.63 0 0 1-.766-7.217c0-2.551.036-4.082.109-4.593.363-1.968 1.274-2.953 2.734-2.953 2.332 0 3.898 1.277 4.701 3.828.366 1.386.548 3.719.548 6.998m19.027 31.057c0-6.78-1.167-15.928-3.499-27.447-3.865-19.172-11.92-33.533-24.166-43.084-3.137-2.406-5.542-3.609-7.218-3.609-.948 0-1.75.402-2.405 1.203-1.167.074-1.75 1.459-1.75 4.155 0 12.176 2.005 25.189 6.014 39.038a184.526 184.526 0 0 0 15.091 36.632c4.008 7.29 7.398 10.937 10.169 10.937 2.696 0 4.484-.73 5.358-2.188 1.602-2.772 2.406-7.983 2.406-15.637m8.748 4.154c0 5.102-.984 10.279-2.953 15.528-1.749 4.664-6.743 6.998-14.98 6.998-1.021 0-2.006-.256-2.953-.766-4.666-2.698-8.82-6.962-12.466-12.793-2.115-3.428-4.774-8.82-7.981-16.184-.366-.801-1.277-3.243-2.734-7.327-6.271-18.078-9.989-34.809-11.154-50.191v-11.59c0-2.989.841-5.485 2.526-7.491 1.682-2.004 3.952-3.007 6.807-3.007 2.193 0 5.084.948 8.673 2.843 8.343 4.374 15.478 11.591 21.407 21.651 4.903 8.311 8.672 17.934 11.31 28.869 1.975 8.311 3.255 15.164 3.84 20.558.438 4.083.66 5.795.66 5.139v7.763zm46.222 95.72h-6.106v15.875c0 1.962.053 3.277.16 3.944h-.08a41.45 41.45 0 0 0-1.44-2.343l-11.392-17.477h-6.967v28.708h6.105v-15.775c0-2.082-.054-3.63-.159-4.645h.08c.267.534.746 1.328 1.44 2.382l11.832 18.038h6.526v-28.707zm-30.43 23.463h-10.751v-6.567h9.39v-5.244h-9.39v-6.387h10.091v-5.265h-16.557v28.708h17.217v-5.245zm-23.783-23.463h-6.486v11.451h-11.892v-11.451h-6.467v28.708h6.467v-11.691h11.892v11.691h6.486v-28.708zm-29.448 23.463h-10.751v-6.567h9.389v-5.244h-9.389v-6.387h10.09v-5.265h-16.556v28.708h17.217v-5.245zm-37.827 5.344c1.421.268 2.919.4 4.494.4 1.535 0 2.993-.147 4.374-.44 1.382-.293 2.593-.776 3.634-1.45a7.402 7.402 0 0 0 2.472-2.644c.607-1.088.911-2.432.911-4.034 0-1.161-.173-2.179-.52-3.053a7.174 7.174 0 0 0-1.502-2.332 10.987 10.987 0 0 0-2.353-1.832 25.114 25.114 0 0 0-3.093-1.531 38.709 38.709 0 0 1-2.262-1.011 11.466 11.466 0 0 1-1.702-1.001c-.467-.341-.828-.701-1.081-1.081a2.274 2.274 0 0 1-.38-1.292c0-.439.113-.837.34-1.19s.547-.657.961-.911c.413-.253.921-.45 1.521-.59a8.772 8.772 0 0 1 2.002-.212 13.367 13.367 0 0 1 3.483.491 12.34 12.34 0 0 1 1.751.631 9.61 9.61 0 0 1 1.572.88v-5.984c-.974-.374-2.039-.651-3.193-.831s-2.479-.271-3.974-.271c-1.521 0-2.963.163-4.324.49s-2.56.838-3.594 1.532-1.853 1.578-2.452 2.652c-.601 1.074-.901 2.358-.901 3.854 0 1.909.552 3.537 1.652 4.885 1.102 1.349 2.772 2.489 5.015 3.423.881.36 1.701.715 2.463 1.062.761.347 1.418.708 1.972 1.081.554.374.991.781 1.311 1.221.32.441.481.941.481 1.502a2.3 2.3 0 0 1-.301 1.151c-.2.354-.504.66-.911.921-.407.26-.914.464-1.521.61s-1.317.221-2.132.221c-1.388 0-2.763-.244-4.124-.731a12.313 12.313 0 0 1-3.784-2.191v6.406c1.041.532 2.273.933 3.695 1.199m-20.17-28.807h-6.106v15.875c0 1.962.054 3.277.16 3.944h-.08a41.45 41.45 0 0 0-1.44-2.343L226.16 245.66h-6.967v28.708h6.106v-15.775c0-2.082-.055-3.63-.16-4.645h.08c.267.534.747 1.328 1.44 2.382l11.832 18.038h6.526v-28.707zm-30.43 23.463h-10.75v-6.567h9.389v-5.244h-9.389v-6.387h10.09v-5.265h-16.556v28.708h17.216v-5.245zm-34.593-18.619c3.003 0 4.504 1.254 4.504 3.764 0 1.201-.427 2.209-1.281 3.022-.841.801-1.956 1.202-3.344 1.202h-2.802v-7.988h2.923zm9.269 15.375a24.48 24.48 0 0 0-.931-1.352c-.341-.46-.698-.891-1.071-1.291a8.939 8.939 0 0 0-1.161-1.051 4.101 4.101 0 0 0-1.242-.651v-.08c.974-.28 1.859-.667 2.653-1.161a8.253 8.253 0 0 0 2.032-1.761 7.716 7.716 0 0 0 1.301-2.293c.307-.847.461-1.771.461-2.772 0-5.205-3.484-7.808-10.451-7.808h-10.25v28.708h6.467v-10.991h1.741c.401 0 .771.084 1.112.251.34.167.667.407.981.72.313.314.623.691.93 1.132s.628.94.961 1.502l4.465 7.387h7.427l-5.425-8.489zm-25.225-20.219h-6.486v11.451h-11.892v-11.451h-6.466v28.708h6.466v-11.691h11.892v11.691h6.486v-28.708zm-38.317 7.567c1.267 1.654 1.902 3.971 1.902 6.946 0 2.856-.655 5.089-1.962 6.697-1.309 1.608-3.077 2.412-5.306 2.412-2.162 0-3.91-.827-5.245-2.482-1.334-1.654-2.002-3.903-2.002-6.747 0-2.803.668-5.055 2.002-6.757 1.335-1.701 3.136-2.552 5.406-2.552 2.201.001 3.937.829 5.205 2.483m4.774 17.496c2.623-2.762 3.934-6.398 3.934-10.909 0-4.392-1.265-7.929-3.794-10.611-2.529-2.682-5.842-4.023-9.939-4.023-4.338 0-7.821 1.401-10.45 4.204-2.63 2.803-3.944 6.474-3.944 11.011 0 4.298 1.294 7.784 3.884 10.461 2.589 2.676 5.938 4.013 10.049 4.013 4.218-.001 7.638-1.382 10.26-4.146m-37.487-25.063H70.187v5.265h8.148v23.443h6.487v-23.443h8.188v-5.265zm-26.685 0h-6.466v28.708h6.466v-28.708zm-13.033 0h-8.088l-5.205 9.93a8.71 8.71 0 0 0-.38.951c-.12.354-.234.717-.341 1.091-.107.373-.207.744-.3 1.111s-.18.697-.26.991h-.1a6.963 6.963 0 0 0-.251-.951c-.113-.341-.24-.691-.38-1.051a71.45 71.45 0 0 0-.43-1.081 25.348 25.348 0 0 0-.441-1.021l-5.065-9.97h-7.927v28.708h5.825v-17.197c0-.72-.02-1.607-.06-2.662s-.107-2.209-.2-3.464h.18c.08.521.177 1.008.29 1.462.114.454.224.864.331 1.231.106.367.207.681.3.94.093.261.167.45.22.57l5.265 10.511h4.525l5.445-10.471a20.02 20.02 0 0 0 .641-1.75c.12-.381.24-.784.36-1.211.12-.427.227-.854.32-1.282h.161a86.372 86.372 0 0 0-.241 6.146v17.177h5.806v-28.708z"/></svg>